<svg width="800" height="600" xmlns="http://www.w3.org/2000/svg">
 <!-- Created with Method Draw - http://github.com/duopixel/Method-Draw/ -->

 <g>
  <title>background</title>
  <rect fill="#ffffff" id="canvas_background" height="602" width="802" y="-1" x="-1"/>
  <g display="none" overflow="visible" y="0" x="0" height="100%" width="100%" id="canvasGrid">
   <rect fill="url(#gridpattern)" strokeWidth="0" y="0" x="0" height="100%" width="100%"/>
  </g>
 </g>
 <g>
  <title>Layer 1</title>
  <rect stroke="#000" id="svg_1" height="577.00001" width="778.99999" y="11.40048" x="9.49999" strokeWidth="16.5" fill="#ffffff"/>
  <g stroke="null" id="svg_11">
   <rect stroke="#000" id="svg_7" height="18.94737" width="459.99999" y="392.05592" x="40.52632" fillOpacity="null" strokeOpacity="null" strokeWidth="16.5" fill="#000000"/>
   <rect stroke="#000" id="svg_9" height="18.94737" width="10.3139" y="392.05592" x="456.17655" strokeOpacity="null" strokeWidth="0" fill="#ffffff"/>
  </g>
  <g stroke="null" id="svg_12">
   <rect stroke="#000" id="svg_5" height="376" width="13" y="51.50576" x="694.76316" strokeOpacity="null" strokeWidth="16.5" fill="#000000"/>
   <rect stroke="#000" id="svg_6" height="376" width="13" y="50.61102" x="740.55263" strokeOpacity="null" strokeWidth="16.5" fill="#000000"/>
  </g>
  <rect id="svg_27" height="0" width="2.10526" y="424.6875" x="923.68421" fillOpacity="null" strokeOpacity="null" strokeWidth="0" stroke="#000" fill="#ffffff"/>
  <rect id="svg_28" height="0" width="1.05263" y="436.26645" x="947.89474" fillOpacity="null" strokeOpacity="null" strokeWidth="0" stroke="#000" fill="#ffffff"/>
  <g id="svg_43">
   <g stroke="null" id="svg_32">
    <rect stroke="#000" id="svg_16" height="53.79033" width="28.50302" y="375.10853" x="640.20112" strokeOpacity="null" strokeWidth="0" fill="#000000"/>
    <rect stroke="#000" id="svg_21" height="30.40323" width="9.63482" y="387.73757" x="643.41274" strokeOpacity="null" strokeWidth="0" fill="#ffffff"/>
    <rect stroke="#000" id="svg_23" height="8.8871" width="22.88271" y="413.46339" x="643.41273" fillOpacity="null" strokeOpacity="null" strokeWidth="0" fill="#ffffff"/>
    <rect stroke="#000" id="svg_24" height="4.67742" width="17.26239" y="377.91499" x="643.41274" fillOpacity="null" strokeOpacity="null" strokeWidth="0" fill="#ffffff"/>
    <rect stroke="#000" id="svg_25" height="33.56842" width="8.02903" y="380.72144" x="658.26641" fillOpacity="null" strokeOpacity="null" strokeWidth="0" fill="#ffffff"/>
    <rect stroke="#000" id="svg_26" height="14.5" width="6.42322" y="378.85048" x="643.41274" fillOpacity="null" strokeOpacity="null" strokeWidth="0" fill="#ffffff"/>
    <rect stroke="#000" id="svg_30" height="5.66917" width="9.24754" y="372.05591" x="663.91036" fillOpacity="null" strokeOpacity="null" strokeWidth="0" fill="#fff"/>
    <rect stroke="#000" id="svg_19" height="7.48387" width="9.20504" y="425.52972" x="635.36951" strokeOpacity="null" strokeWidth="0" fill="#ffffff"/>
    <rect stroke="#000" id="svg_17" height="7.48387" width="7.60868" y="425.62468" x="664.28819" strokeOpacity="null" strokeWidth="0" fill="#ffffff"/>
   </g>
   <g stroke="null" id="svg_42">
    <rect stroke="#000" id="svg_33" height="53.79033" width="28.50302" y="375.10853" x="604.41165" strokeOpacity="null" strokeWidth="0" fill="#000000"/>
    <rect stroke="#000" id="svg_34" height="30.40323" width="9.63482" y="387.73757" x="607.62326" strokeOpacity="null" strokeWidth="0" fill="#ffffff"/>
    <rect stroke="#000" id="svg_35" height="8.8871" width="22.88271" y="413.46339" x="607.62326" fillOpacity="null" strokeOpacity="null" strokeWidth="0" fill="#ffffff"/>
    <rect stroke="#000" id="svg_36" height="4.67742" width="17.26239" y="377.91499" x="607.62326" fillOpacity="null" strokeOpacity="null" strokeWidth="0" fill="#ffffff"/>
    <rect stroke="#000" id="svg_37" height="33.56842" width="8.02903" y="380.72144" x="622.47694" fillOpacity="null" strokeOpacity="null" strokeWidth="0" fill="#ffffff"/>
    <rect stroke="#000" id="svg_38" height="14.5" width="6.42322" y="378.85048" x="607.62327" fillOpacity="null" strokeOpacity="null" strokeWidth="0" fill="#ffffff"/>
    <rect stroke="#000" id="svg_39" height="5.66917" width="9.24754" y="372.05591" x="628.12088" fillOpacity="null" strokeOpacity="null" strokeWidth="0" fill="#fff"/>
    <rect stroke="#000" id="svg_40" height="7.48387" width="9.20504" y="425.52972" x="599.58003" strokeOpacity="null" strokeWidth="0" fill="#ffffff"/>
    <rect stroke="#000" id="svg_41" height="7.48387" width="7.60868" y="425.62468" x="628.49872" strokeOpacity="null" strokeWidth="0" fill="#ffffff"/>
   </g>
  </g>
  <g stroke="null" id="svg_48">
   <path stroke="null" id="svg_47" d="m244.1406,110.40558c0,-7.14535 -5.55308,-12.94447 -12.39526,-12.94447l-92.96449,0c-6.84219,0 -12.39526,5.79912 -12.39526,12.94447l0,97.08351c0,7.14535 5.55308,12.94447 12.39526,12.94447l92.96449,0c6.84219,0 12.39526,-5.79912 12.39526,-12.94447l0,-97.08351zm-12.39526,92.22934c0,2.6795 -2.0824,4.85418 -4.64822,4.85418l-83.66804,0c-2.56582,0 -4.64822,-2.17467 -4.64822,-4.85418l0,-87.37516c0,-2.6795 2.0824,-4.85418 4.64822,-4.85418l83.66804,0c2.56582,0 4.64822,2.17467 4.64822,4.85418l0,87.37516zm-55.77869,24.27088l0,6.47223l-6.19763,0l0,-6.47223l6.19763,0zm12.39526,0l0,6.47223l-6.19763,0l0,-6.47223l6.19763,0zm-24.79053,0l0,6.47223l-6.19763,0l0,-6.47223l6.19763,0zm37.18579,0l0,6.47223l-6.19763,0l0,-6.47223l6.19763,0zm12.39526,0l0,6.47223l-6.19763,0l0,-6.47223l6.19763,0zm-37.18579,-142.38915l0,6.47223l-6.19763,0l0,-6.47223l6.19763,0zm12.39526,0l0,6.47223l-6.19763,0l0,-6.47223l6.19763,0zm-24.79053,0l0,6.47223l-6.19763,0l0,-6.47223l6.19763,0zm37.18579,0l0,6.47223l-6.19763,0l0,-6.47223l6.19763,0zm12.39526,0l0,6.47223l-6.19763,0l0,-6.47223l6.19763,0zm37.18579,84.13904l6.19763,0l0,6.47223l-6.19763,0l0,-6.47223zm0,-25.88894l6.19763,0l0,6.47223l-6.19763,0l0,-6.47223zm0,-12.94447l6.19763,0l0,6.47223l-6.19763,0l0,-6.47223zm0,25.88894l6.19763,0l0,6.47223l-6.19763,0l0,-6.47223zm0,25.88894l6.19763,0l0,6.47223l-6.19763,0l0,-6.47223zm-136.34791,-12.94447l6.19763,0l0,6.47223l-6.19763,0l0,-6.47223zm0,-25.88894l6.19763,0l0,6.47223l-6.19763,0l0,-6.47223zm0,-12.94447l6.19763,0l0,6.47223l-6.19763,0l0,-6.47223zm0,25.88894l6.19763,0l0,6.47223l-6.19763,0l0,-6.47223zm0,25.88894l6.19763,0l0,6.47223l-6.19763,0l0,-6.47223zm105.35975,12.94447l-68.17396,0l0,-71.19458l68.17396,0l0,71.19458z"/>
  </g>
  <g stroke="null" id="svg_52">
   <rect stroke="#000" id="svg_49" height="14.91228" width="68.42105" y="442.46528" x="40.52632" fillOpacity="null" strokeOpacity="null" strokeWidth="16.5" fill="#000000"/>
   <rect stroke="#000" id="svg_50" height="17.89474" width="6.79726" y="440.47697" x="99.19284" strokeOpacity="null" strokeWidth="0" fill="#ffffff"/>
  </g>
  <ellipse stroke="#000" ry="17.36842" rx="17.89473" id="svg_53" cy="141.05263" cx="323.68419" strokeOpacity="null" strokeWidth="0" fill="#ff7f00"/>
  <line stroke="#ffffff" strokeLinecap="null" strokeLinejoin="null" id="svg_61" y2="135.26316" x2="331.05264" y1="146.84211" x1="315.26315" strokeWidth="5" fill="none"/>
  <line stroke="#ffffff" strokeLinecap="null" strokeLinejoin="null" id="svg_63" y2="177.36843" x2="331.05264" y1="188.94738" x1="315.26315" strokeWidth="5" fill="none"/>
  <ellipse stroke="#000" ry="17.36842" rx="17.89473" id="svg_64" cy="176.8421" cx="323.68419" strokeOpacity="null" strokeWidth="0" fill="#ff7f00"/>
  <line stroke="#ffffff" strokeLinecap="null" strokeLinejoin="null" id="svg_65" y2="171.05264" x2="331.05264" y1="182.63159" x1="315.26315" strokeWidth="5" fill="none"/>
  <ellipse stroke="#000" ry="17.36842" rx="17.89473" id="svg_66" cy="141.05263" cx="359.47367" strokeOpacity="null" strokeWidth="0" fill="#ff7f00"/>
  <line stroke="#ffffff" strokeLinecap="null" strokeLinejoin="null" id="svg_67" y2="135.26316" x2="366.84212" y1="146.84211" x1="351.05263" strokeWidth="5" fill="none"/>
  <ellipse stroke="#000" ry="17.36842" rx="17.89473" id="svg_68" cy="176.8421" cx="359.47367" strokeOpacity="null" strokeWidth="0" fill="#ff7f00"/>
  <line stroke="#ffffff" strokeLinecap="null" strokeLinejoin="null" id="svg_69" y2="170.00001" x2="366.84212" y1="181.57895" x1="351.05263" strokeWidth="5" fill="none"/>
  <ellipse ry="34.21053" rx="35.78947" id="svg_70" cy="273.68421" cx="344.73685" strokeOpacity="null" strokeWidth="3" stroke="#000" fill="#cccccc"/>
  <text stroke="#000" transform="matrix(1.2392665134284895,0,0,0.9889174267746909,-97.62518563142247,3.113852098893048) " xml:space="preserve" textAnchor="start" fontFamily="Helvetica, Arial, sans-serif" fontSize="24" id="svg_71" y="281.91584" x="349.82355" strokeOpacity="null" strokeWidth="0" fill="#000000">+</text>
  <text xml:space="preserve" textAnchor="start" fontFamily="Helvetica, Arial, sans-serif" fontSize="24" id="svg_72" y="213.15789" x="-103.68421" strokeOpacity="null" strokeWidth="0" stroke="#000" fill="#000000"/>
  <rect stroke="#000" id="svg_77" height="33.61891" width="93.52346" y="539.61754" x="408.28563" fillOpacity="null" strokeOpacity="null" strokeWidth="2" fill="#fff"/>
  <ellipse stroke="#000" ry="5.26316" rx="5.26316" id="svg_73" cy="556.06516" cx="444.53635" strokeOpacity="null" strokeWidth="0" fill="#cccccc"/>
  <ellipse stroke="#000" ry="5.26316" rx="5.26316" id="svg_74" cy="556.06516" cx="460.32582" strokeOpacity="null" strokeWidth="0" fill="#cccccc"/>
  <ellipse stroke="#000" ry="5.26316" rx="5.26316" id="svg_75" cy="556.06516" cx="477.16793" strokeOpacity="null" strokeWidth="0" fill="#cccccc"/>
  <ellipse stroke="#000" ry="5.26316" rx="5.26316" id="svg_76" cy="556.06516" cx="427.69424" strokeOpacity="null" strokeWidth="0" fill="#cccccc"/>
  <rect stroke="#000" id="svg_78" height="33.61891" width="148.76156" y="541.68103" x="33.99992" fillOpacity="null" strokeOpacity="null" strokeWidth="2" fill="#fff"/>
  <ellipse stroke="#000" ry="5.26316" rx="5.26316" id="svg_79" cy="565.58897" cx="68.34588" strokeOpacity="null" strokeWidth="0" fill="#cccccc"/>
  <ellipse stroke="#000" ry="5.26316" rx="5.26316" id="svg_80" cy="565.58897" cx="84.13536" strokeOpacity="null" strokeWidth="0" fill="#cccccc"/>
  <ellipse stroke="#000" ry="5.26316" rx="5.26316" id="svg_81" cy="565.58897" cx="100.97746" strokeOpacity="null" strokeWidth="0" fill="#cccccc"/>
  <ellipse stroke="#000" ry="5.26316" rx="5.26316" id="svg_82" cy="565.58897" cx="51.50378" strokeOpacity="null" strokeWidth="0" fill="#cccccc"/>
  <ellipse stroke="#000" ry="5.26316" rx="5.26316" id="svg_88" cy="565.58897" cx="116.21556" strokeOpacity="null" strokeWidth="0" fill="#cccccc"/>
  <ellipse stroke="#000" ry="5.26316" rx="5.26316" id="svg_89" cy="565.58897" cx="131.45365" strokeOpacity="null" strokeWidth="0" fill="#cccccc"/>
  <ellipse stroke="#000" ry="5.26316" rx="5.26316" id="svg_90" cy="565.58897" cx="146.69175" strokeOpacity="null" strokeWidth="0" fill="#cccccc"/>
  <ellipse stroke="#000" ry="5.26316" rx="5.26316" id="svg_91" cy="565.58897" cx="161.92984" strokeOpacity="null" strokeWidth="0" fill="#cccccc"/>
  <ellipse stroke="#000" ry="5.26316" rx="5.26316" id="svg_92" cy="552.25563" cx="67.3935" strokeOpacity="null" strokeWidth="0" fill="#cccccc"/>
  <ellipse stroke="#000" ry="5.26316" rx="5.26316" id="svg_93" cy="552.25563" cx="83.18297" strokeOpacity="null" strokeWidth="0" fill="#cccccc"/>
  <ellipse stroke="#000" ry="5.26316" rx="5.26316" id="svg_94" cy="552.25563" cx="100.02508" strokeOpacity="null" strokeWidth="0" fill="#cccccc"/>
  <ellipse stroke="#000" ry="5.26316" rx="5.26316" id="svg_95" cy="552.25563" cx="50.55139" strokeOpacity="null" strokeWidth="0" fill="#cccccc"/>
  <ellipse stroke="#000" ry="5.26316" rx="5.26316" id="svg_96" cy="552.25563" cx="115.26318" strokeOpacity="null" strokeWidth="0" fill="#cccccc"/>
  <ellipse stroke="#000" ry="5.26316" rx="5.26316" id="svg_97" cy="552.25563" cx="130.50127" strokeOpacity="null" strokeWidth="0" fill="#cccccc"/>
  <ellipse stroke="#000" ry="5.26316" rx="5.26316" id="svg_98" cy="552.25563" cx="145.73937" strokeOpacity="null" strokeWidth="0" fill="#cccccc"/>
  <ellipse stroke="#000" ry="5.26316" rx="5.26316" id="svg_99" cy="552.25563" cx="160.97746" strokeOpacity="null" strokeWidth="0" fill="#cccccc"/>
  <rect id="svg_100" height="118.88892" width="141.11115" y="222.77776" x="420.55558" strokeOpacity="null" strokeWidth="2" stroke="#000" fill="#000000"/>
  <line stroke="#ffffff" strokeLinecap="null" strokeLinejoin="null" id="svg_101" y2="341.66668" x2="439.44447" y1="222.77776" x1="439.44447" fillOpacity="null" strokeWidth="2" fill="none"/>
  <line stroke="#ffffff" strokeLinecap="null" strokeLinejoin="null" id="svg_102" y2="341.66668" x2="473.88892" y1="222.77776" x1="473.88892" fillOpacity="null" strokeWidth="2" fill="none"/>
  <line stroke="#ffffff" strokeLinecap="null" strokeLinejoin="null" id="svg_103" y2="341.66668" x2="509.44449" y1="222.77776" x1="509.44449" fillOpacity="null" strokeWidth="2" fill="none"/>
  <line stroke="#ffffff" strokeLinecap="null" strokeLinejoin="null" id="svg_104" y2="341.66668" x2="545.00005" y1="222.77776" x1="545.00005" fillOpacity="null" strokeWidth="2" fill="none"/>
  <rect id="svg_105" height="48.86364" width="45.45455" y="228.97727" x="17.61364" strokeOpacity="null" strokeWidth="0" stroke="#000" fill="#4c4c4c"/>
  <rect id="svg_106" height="0" width="11.36364" y="275.56818" x="31.25" fillOpacity="null" strokeOpacity="null" strokeWidth="0" stroke="#000" fill="#cccccc"/>
  <rect stroke="#000" id="svg_108" height="38.63636" width="37.5" y="176.70455" x="17.61364" strokeOpacity="null" strokeWidth="0" fill="#0000bf"/>
  <rect id="svg_109" height="71.59091" width="11.36364" y="159.65909" x="17.61364" strokeOpacity="null" strokeWidth="0" stroke="#000" fill="#0000bf"/>
  <g id="svg_113">
   <rect stroke="#000" id="svg_110" height="42.04545" width="37.5" y="109.65909" x="17.61364" strokeOpacity="null" strokeWidth="0" fill="#4c4c4c"/>
   <rect id="svg_111" height="4.54545" width="7.95455" y="118.75" x="27.84091" strokeOpacity="null" strokeWidth="0" stroke="#000" fill="#ffffff"/>
   <rect id="svg_112" height="4.54545" width="7.95455" y="135.79545" x="27.84091" strokeOpacity="null" strokeWidth="0" stroke="#000" fill="#ffffff"/>
  </g>
  <rect id="svg_114" height="43.18182" width="50" y="47.15909" x="17.61364" strokeOpacity="null" strokeWidth="0" stroke="#000" fill="#333333"/>
 </g>
</svg>